# xmcd CD database file
#
# Track frame offsets:
#	150
#	15362
#	32725
#	52845
#	74205
#	89832
#	107247
#	123666
#	139530
#	157896
#	176487
#	191848
#
# Disc length: 2785 seconds
#
# Revision: 1
# Processed by: cddbd v1.5.2PL0 Copyright (c) Steve Scherf et al.
# Submitted via: CDex 1.51
#
DISCID=a60adf0c
DTITLE=Trace Adkins - Chrome
DYEAR=2001
DGENRE=Country
TTITLE0=Chrome
TTITLE1=Help Me Understand
TTITLE2=Once Upon A Fool Ago
TTITLE3=I'm Tryin'
TTITLE4=Thankful Man
TTITLE5=I'm Payin' For It Now
TTITLE6=And There Was You
TTITLE7=Come Home
TTITLE8=Scream
TTITLE9=I'm Goin' Back
TTITLE10=Give Me You
TTITLE11=Love Me Like There's No Tomorrow
EXTD=YEAR: 2001
EXTT0=
EXTT1=
EXTT2=
EXTT3=
EXTT4=
EXTT5=
EXTT6=
EXTT7=
EXTT8=
EXTT9=
EXTT10=
EXTT11=
PLAYORDER=
